<svg width="377" height="361" viewBox="0 0 377 361" fill="none" xmlns="http://www.w3.org/2000/svg">
<rect x="147" y="87" width="83" height="130" rx="8" fill="#796161"/>
<rect x="155" y="228" width="26" height="133" rx="8" fill="#796161"/>
<rect x="197" y="228" width="26" height="133" rx="8" fill="#796161"/>
<ellipse cx="187.5" cy="43.5" rx="40.5" ry="43.5" fill="#796161"/>
<ellipse cx="188.5" cy="45.5" rx="34.5" ry="33.5" fill="#D9D9D9"/>
<path d="M148.944 59.0401C147.687 54.9741 152.806 52.0184 155.699 55.1398L194.721 97.2466C196.466 99.1297 196.011 102.146 193.787 103.43L171.72 116.17C169.496 117.454 166.656 116.34 165.898 113.888L148.944 59.0401Z" fill="#796161"/>
<path d="M219.808 53.1399C222.701 50.0184 227.82 52.9741 226.563 57.0401L209.609 111.888C208.851 114.34 206.011 115.454 203.787 114.17L181.72 101.43C179.496 100.146 179.041 97.1297 180.786 95.2466L219.808 53.1399Z" fill="#796161"/>
<ellipse cx="188" cy="26" rx="35" ry="18" fill="#796161"/>
<path d="M377 217L366.5 223.928V210.072L377 217Z" fill="#D9D9D9"/>
<rect x="336" y="210" width="31" height="14" fill="#D9D9D9"/>
<rect x="236" y="98.5" width="23" height="130" rx="8" transform="rotate(-30 236 98.5)" fill="#796161"/>
<rect x="120" y="87" width="23" height="130" rx="8" transform="rotate(30 120 87)" fill="#796161"/>
<rect x="41" y="217" width="5" height="30" transform="rotate(-90 41 217)" fill="#6C6645"/>
<rect x="10" y="208" width="31" height="14" fill="#D9D9D9"/>
<path d="M0 215L10.5 208.072L10.5 221.928L0 215Z" fill="#D9D9D9"/>
<rect x="306" y="219" width="5" height="30" transform="rotate(-90 306 219)" fill="#6C6645"/>
</svg>
