<svg width="269" height="482" viewBox="0 0 269 482" fill="none" xmlns="http://www.w3.org/2000/svg">
<rect x="34" y="208" width="83" height="130" rx="8" fill="#606060"/>
<ellipse cx="75.5" cy="166.5" rx="34.5" ry="33.5" fill="#D9D9D9"/>
<rect y="208" width="23" height="130" rx="8" fill="#606060"/>
<rect x="42" y="349" width="26" height="133" rx="8" fill="#606060"/>
<path d="M84 357C84 352.582 87.5817 349 92 349H102C106.418 349 110 352.582 110 357V474C110 478.418 106.418 482 102 482H92C87.5817 482 84 478.418 84 474V357Z" fill="#606060"/>
<rect x="134.5" y="235.919" width="23" height="130" rx="8" transform="rotate(-120 134.5 235.919)" fill="#606060"/>
<rect x="244" y="18" width="20" height="121" fill="#606060"/>
<path d="M254 0L263.526 18H244.474L254 0Z" fill="#606060"/>
<rect x="239" y="139" width="30" height="3" fill="#D9D9D9"/>
<rect x="251" y="142" width="7" height="37" fill="#6C6645"/>
</svg>
